<?xml version="1.0" encoding="UTF-8"?>
<svg width="18px" height="17px" viewBox="0 0 18 17" version="1.1" xmlns="http://www.w3.org/2000/svg" xmlns:xlink="http://www.w3.org/1999/xlink">
    <!-- Generator: Sketch 48.2 (47327) - http://www.bohemiancoding.com/sketch -->
    <title>noun_896780_cc</title>
    <desc>Created with Sketch.</desc>
    <defs></defs>
    <g id="3" stroke="none" stroke-width="1" fill="none" fill-rule="evenodd" transform="translate(-67.000000, -646.000000)" stroke-linecap="round" stroke-linejoin="round">
        <g id="Group-3" stroke="#FFFFFF" stroke-width="1.3">
            <g id="noun_896780_cc" transform="translate(68.000000, 647.000000)">
                <path d="M16,13.8506667 C16,14.4397704 15.5224371,14.9173333 14.9333333,14.9173333 L1.06666667,14.9173333 C0.477562934,14.9173333 0,14.4397704 0,13.8506667 L0,5.86666667 C0.000306196438,5.51619109 0.172760862,5.18822817 0.461333333,4.98933333 L7.408,0.189333333 C7.76643933,-0.0498128397 8.23356067,-0.0498128397 8.592,0.189333333" id="Shape"></path>
                <path d="M8.592,0.197333333 L15.5386667,4.99733333 C15.8249252,5.19461545 15.9970805,5.51902365 16,5.86666667 L16,13.84" id="Shape"></path>
                <path d="M6.03733333,9.90933333 L0,5.88266667" id="Shape"></path>
                <path d="M16,5.88266667 L9.96266667,9.90933333" id="Shape"></path>
                <path d="M0,13.936 L7.408,8.99466667 C7.76643933,8.75552049 8.23356067,8.75552049 8.592,8.99466667 L16,13.936" id="Shape"></path>
            </g>
        </g>
    </g>
</svg>