<?xml version="1.0" encoding="UTF-8"?>
<svg width="18px" height="15px" viewBox="0 0 18 15" version="1.1" xmlns="http://www.w3.org/2000/svg" xmlns:xlink="http://www.w3.org/1999/xlink">
    <!-- Generator: Sketch 48.2 (47327) - http://www.bohemiancoding.com/sketch -->
    <title>noun_99448_cc</title>
    <desc>Created with Sketch.</desc>
    <defs></defs>
    <g id="3" stroke="none" stroke-width="1" fill="none" fill-rule="evenodd" transform="translate(-67.000000, -618.000000)">
        <g id="Group-3" fill="#FFFFFF" fill-rule="nonzero">
            <g id="noun_99448_cc" transform="translate(67.000000, 618.000000)">
                <g id="Group">
                    <ellipse id="Oval" cx="3.17647059" cy="11.5140496" rx="1" ry="1"></ellipse>
                    <path d="M15.3341471,4.01652893 L14.8235294,4.01652893 L14.8235294,0 L3.17647059,0 L3.17647059,4.01652893 L2.66585294,4.01652893 C1.19594118,4.01652893 0,5.22603967 0,6.71322645 L0,12.0305752 C0,13.5174942 1.19594118,14.7272727 2.66585294,14.7272727 L15.3338824,14.7272727 C16.8040588,14.7272727 18,13.5174942 18,12.0305752 L18,6.71322645 C18,5.22603967 16.8040588,4.01652893 15.3341471,4.01652893 Z M4.5,1.33884298 L13.5,1.33884298 L13.5,6.42644628 L4.5,6.42644628 L4.5,1.33884298 Z M16.6764706,12.0305752 C16.6764706,12.7773818 16.0724118,13.388162 15.3341471,13.388162 L2.66585294,13.388162 C1.92758824,13.3884298 1.32352941,12.7773818 1.32352941,12.0305752 L1.32352941,6.71322645 C1.32352941,5.96641983 1.92758824,5.3553719 2.66585294,5.3553719 L3.17647059,5.3553719 L3.17647059,7.76528926 L14.8235294,7.76528926 L14.8235294,5.3553719 L15.3341471,5.3553719 C16.0724118,5.3553719 16.6764706,5.96641983 16.6764706,6.71322645 L16.6764706,12.0305752 Z" id="Shape"></path>
                </g>
            </g>
        </g>
    </g>
</svg>