<?xml version="1.0" encoding="UTF-8"?>
<svg width="20px" height="19px" viewBox="0 0 20 19" version="1.1" xmlns="http://www.w3.org/2000/svg" xmlns:xlink="http://www.w3.org/1999/xlink">
    <!-- Generator: Sketch 48.2 (47327) - http://www.bohemiancoding.com/sketch -->
    <title>noun_419895_cc</title>
    <desc>Created with Sketch.</desc>
    <defs></defs>
    <g id="3" stroke="none" stroke-width="1" fill="none" fill-rule="evenodd" transform="translate(-67.000000, -587.000000)">
        <g id="Group-3" fill="#FFFFFF" fill-rule="nonzero">
            <g id="noun_419895_cc" transform="translate(67.000000, 587.000000)">
                <path d="M14.138459,19.011475 C11.9334633,19.011475 8.9161009,18.0600634 5.41131837,14.4632632 C1.53516817,10.4719752 0.815643277,7.20004733 0.908485198,5.15799302 C0.978116639,3.41760583 1.67443105,1.81644962 2.76532362,0.865037958 C3.46163803,0.261703732 4.29721532,0.076062432 5.17921357,0.33131922 C6.78073671,0.79542247 8.26620745,2.67504063 8.61436465,3.83529876 C9.00894282,5.13478786 8.12694457,6.15581501 7.40741968,6.99120086 C7.08247296,7.36248346 6.59505287,7.94261253 6.64147383,8.15145899 C6.75752623,8.59235708 8.26620745,10.4255649 10.8657812,12.9085173 C11.8174109,13.8135186 12.1191472,13.581467 12.7458301,12.9317225 C12.9083035,12.7692863 13.0475664,12.6068502 13.1868293,12.4444141 C13.7438808,11.8178747 14.3241428,11.1681301 15.4614563,11.0521043 C17.0165585,10.8896682 18.8966074,12.8156967 19.5000799,13.720698 C20.3124467,14.9273664 19.360817,16.7605743 18.0610301,17.8512169 C18.0146092,17.8512169 16.5755594,19.011475 14.138459,19.011475 Z M4.41326772,1.60760316 C4.13474196,1.60760316 3.90263716,1.70042381 3.67053235,1.90927027 C2.85816554,2.62863031 2.3243245,3.85850392 2.27790354,5.20440335 C2.20827209,6.9679957 2.85816554,9.84543585 6.40936903,13.4886464 C11.7942005,19.0346802 15.9952974,17.7351911 17.1558214,16.7605743 C18.0378197,16.0180091 18.6180817,14.9041613 18.3395559,14.4864684 C17.6896624,13.5350567 16.2506127,12.3747986 15.6007192,12.4444141 C15.0204572,12.4908244 14.7651419,12.7692863 14.2313009,13.3726206 C14.092038,13.5350567 13.9295646,13.720698 13.7438808,13.9063393 C12.885093,14.7881355 11.6549376,15.6003162 9.89094107,13.9295445 C8.28941793,12.3980037 5.52737078,9.63658939 5.27205549,8.49953643 C5.06316117,7.59453509 5.71305462,6.82876473 6.33973759,6.10940469 C7.01284151,5.34363432 7.43063016,4.78671042 7.2681568,4.27619685 C7.01284151,3.46401616 5.8523175,2.00209092 4.78463541,1.70042381 C4.66858301,1.63080832 4.52932012,1.60760316 4.41326772,1.60760316 Z" id="Shape"></path>
            </g>
        </g>
    </g>
</svg>